<svg xmlns="http://www.w3.org/2000/svg" version="1.1" xmlns:xlink="http://www.w3.org/1999/xlink" xmlns:svgjs="http://svgjs.dev/svgjs" width="2000" height="1500" viewBox="0 0 2000 1500"><rect width="2000" height="1500" fill="#ffffff"></rect><g transform="matrix(0.75,0,0,0.75,249.090909090909,577.191720033371)"><svg viewBox="0 0 396 91" data-background-color="#ffffff" preserveAspectRatio="xMidYMid meet" height="459" width="2000" xmlns="http://www.w3.org/2000/svg" xmlns:xlink="http://www.w3.org/1999/xlink"><g id="tight-bounds" transform="matrix(1,0,0,1,0.2400000000000091,0.1806201218975616)"><svg viewBox="0 0 395.52 90.63875975620489" height="90.63875975620489" width="395.52"><g><svg viewBox="0 0 538.3321260322344 123.36609081837257" height="90.63875975620489" width="395.52"><g transform="matrix(1,0,0,1,142.81212603223446,17.049872175332247)"><svg viewBox="0 0 395.52 89.26634646770808" height="89.26634646770808" width="395.52"><g id="textblocktransform"><svg viewBox="0 0 395.52 89.26634646770808" height="89.26634646770808" width="395.52" id="textblock"><g><svg viewBox="0 0 395.52 89.26634646770808" height="89.26634646770808" width="395.52"><g transform="matrix(1,0,0,1,0,0)"><svg width="395.52" viewBox="0.05 -46.5 214.42 48.4" height="89.26634646770808" data-palette-color="#b81d33"><path d="M33.85-37.45L33.85-37.45Q33.85-36.3 32.6-34.15 31.35-32 28.8-28.8 26.25-25.6 24.05-22.98 21.85-20.35 18.32-16.25 14.8-12.15 13.15-10.2L13.15-10.2Q9.9-6.35 7-3.43 4.1-0.5 2.8 0.5L2.8 0.5 1.55 1.5Q1.1 1.9 0.65 1.9L0.65 1.9Q0.05 1.9 0.05 0.95L0.05 0.95Q0.05-2.75 2.45-12.1L2.45-12.1Q3.95-17.95 6.05-23.73 8.15-29.5 9.5-32.3L9.5-32.3 10.85-35.15Q11.6-36.65 12.88-37.55 14.15-38.45 15.05-38.45L15.05-38.45Q15.75-38.45 15.75-37.95L15.75-37.95Q15.75-37.85 15.65-37.55L15.65-37.55Q14.85-35.55 13.58-32.2 12.3-28.85 9.75-20.63 7.2-12.4 6.3-6.7L6.3-6.7Q6.35-5.9 6.8-5.9L6.8-5.9Q7.05-5.9 7.5-6.35L7.5-6.35Q11.65-10.3 17.15-17.45L17.15-17.45Q26.55-29.75 27.55-35.75L27.55-35.75Q27.55-37.15 29.23-37.85 30.9-38.55 32.4-38.55L32.4-38.55Q33.85-38.55 33.85-37.45ZM29.2-16.95L29.2-16.95Q29.8-18.2 29.8-19.15L29.8-19.15Q29.8-19.95 29.3-19.95L29.3-19.95Q29-19.95 28.62-19.78 28.25-19.6 28.05-19.4L28.05-19.4 27.8-19.2Q26.25-17.85 23.92-14.28 21.6-10.7 21.6-9.7L21.6-9.7Q21.6-9.5 21.7-9.5L21.7-9.5Q22-9.5 23.02-10 24.05-10.5 25.97-12.35 27.9-14.2 29.2-16.95ZM26.95-5.5L26.95-5.5Q29.6-7.95 34.55-13.6L34.55-13.6Q34.7-13.75 34.8-13.75 34.9-13.75 34.9-13.55L34.9-13.55Q34.9-12.6 34.15-11.7L34.15-11.7Q30.45-7.6 27.6-4.85L27.6-4.85Q25.5-2.75 22.6-0.83 19.7 1.1 17.8 1.1L17.8 1.1Q15.5 1.1 15.5-2.1L15.5-2.1Q15.5-7.4 19.42-13.2 23.35-19 28.5-21.05L28.5-21.05Q30.65-21.95 32.4-21.95L32.4-21.95Q34.35-21.95 34.35-20.4L34.35-20.4Q34.35-17.5 30.25-13.75 26.15-10 21.05-8.05L21.05-8.05Q20.85-8 20.7-7.7L20.7-7.7Q19.95-5.65 19.95-4.05L19.95-4.05Q19.95-2.25 21.3-2.25L21.3-2.25Q23.45-2.25 26.95-5.5ZM47.8-7.55L47.8-7.55Q49.9-9.65 53.34-13.6L53.34-13.6Q53.5-13.75 53.59-13.75 53.7-13.75 53.7-13.55L53.7-13.55Q53.7-12.6 52.95-11.7L52.95-11.7Q49.25-7.6 46.4-4.85L46.4-4.85Q40.4 0.7 38.5 0.7L38.5 0.7Q37.75 0.7 37.75-0.25L37.75-0.25Q37.75-2.05 39.8-5.73 41.84-9.4 43.87-12.58 45.9-15.75 45.9-16.3L45.9-16.3Q45.9-16.6 45.59-16.6L45.59-16.6Q44.4-16.6 41.05-12.9 37.7-9.2 35.4-6.25L35.4-6.25Q32.84-3.05 30.97-1.15 29.1 0.75 28.5 1L28.5 1 27.85 1.3Q27.4 1.3 27.4 0.8L27.4 0.8Q27.4 0 28.3-2.05 29.2-4.1 30.1-5.75L30.1-5.75 31-7.4 38.8-21.4Q48-37.65 53.3-44.5L53.3-44.5Q54.8-46.5 55.4-46.5L55.4-46.5Q55.7-46.5 55.7-46.1L55.7-46.1Q55.7-45.05 54.09-41.8L54.09-41.8Q46.25-27.65 43.2-22.2L43.2-22.2Q41.34-18.9 39.84-16.32 38.34-13.75 37.72-12.7 37.09-11.65 36.65-10.88 36.2-10.1 35.95-9.55L35.95-9.55Q35.9-9.4 35.9-9.25L35.9-9.25Q35.9-9 36-9 36.09-9 36.4-9.3L36.4-9.3Q47.59-21.75 51.09-21.75L51.09-21.75Q51.8-21.75 51.8-21.05L51.8-21.05Q51.8-20.85 51.59-20.18 51.4-19.5 50.45-17.45 49.5-15.4 47.95-12.9L47.95-12.9Q47-11.5 45.55-8.9 44.09-6.3 44.09-5.5L44.09-5.5Q44.09-5.05 44.55-5.05L44.55-5.05Q44.7-5.05 44.97-5.18 45.25-5.3 45.59-5.6 45.95-5.9 46.22-6.15 46.5-6.4 47.02-6.88 47.55-7.35 47.8-7.55ZM55.49-4.85L55.49-4.85Q49.64 0.65 47.99 0.65L47.99 0.65Q47.14 0.65 47.14-0.5 47.14-1.65 48.04-3.85 48.94-6.05 49.84-7.7L49.84-7.7 50.74-9.3Q54.54-15.95 56.49-18.85L56.49-18.85Q57.34-20.1 58.67-20.98 59.99-21.85 61.14-21.85L61.14-21.85Q61.54-21.85 61.54-21.5L61.54-21.5Q61.54-21.25 61.19-20.55L61.19-20.55Q60.59-19.45 58.24-15.3 55.89-11.15 55.44-10.3L55.44-10.3Q53.39-6.7 53.39-5.5L53.39-5.5Q53.39-5.05 53.69-5.05L53.69-5.05Q54.19-5.05 56.89-7.55L56.89-7.55Q58.99-9.65 62.44-13.6L62.44-13.6Q62.59-13.75 62.69-13.75 62.79-13.75 62.79-13.55L62.79-13.55Q62.79-12.6 62.04-11.7L62.04-11.7Q58.34-7.6 55.49-4.85ZM62.14-24.7L62.14-24.7Q60.89-24.7 60.89-26.2L60.89-26.2Q60.89-27.6 61.94-29.03 62.99-30.45 64.24-30.45L64.24-30.45Q65.74-30.45 65.74-28.75L65.74-28.75Q65.74-27.35 64.59-26.03 63.44-24.7 62.14-24.7ZM69.89-4.85L69.89-4.85Q67.64-2.7 64.81-0.83 61.99 1.05 60.04 1.05L60.04 1.05Q57.74 1.05 57.74-2.5L57.74-2.5Q57.74-6.25 60.39-10.83 63.04-15.4 67.12-18.65 71.19-21.9 74.84-21.9L74.84-21.9Q76.79-21.9 76.79-20.45L76.79-20.45Q76.79-17.95 73.54-14.8L73.54-14.8Q73.24-14.5 72.24-13.75 71.24-13 70.84-13L70.84-13Q70.59-13 70.59-13.25L70.59-13.25 70.74-13.7Q72.74-17.25 72.74-19.1L72.74-19.1Q72.74-20.1 72.09-20.1L72.09-20.1Q70.54-20.1 68.17-17.07 65.79-14.05 64.04-10.18 62.29-6.3 62.29-4.05L62.29-4.05Q62.29-2.25 63.59-2.25L63.59-2.25Q65.84-2.25 69.24-5.5L69.24-5.5Q71.89-7.95 76.84-13.6L76.84-13.6Q76.99-13.75 77.09-13.75 77.19-13.75 77.19-13.55L77.19-13.55Q77.19-12.6 76.44-11.7L76.44-11.7Q72.74-7.6 69.89-4.85ZM86.64-24.35L86.64-24.35Q90.19-26.85 93.01-30.03 95.84-33.2 97.31-35.88 98.79-38.55 99.54-40.5 100.29-42.45 100.29-43.3L100.29-43.3Q100.29-43.8 99.94-43.8L99.94-43.8Q99.24-43.8 98.24-42.8L98.24-42.8Q96.34-40.9 93.94-37.3 91.54-33.7 90.06-31.13 88.59-28.55 86.24-24.25L86.24-24.25Q86.44-24.25 86.64-24.35ZM81.29-7.55L81.29-7.55Q83.39-9.65 86.84-13.6L86.84-13.6Q86.99-13.75 87.09-13.75 87.19-13.75 87.19-13.55L87.19-13.55Q87.19-12.6 86.44-11.7L86.44-11.7Q82.74-7.6 79.89-4.85L79.89-4.85Q73.64 1.05 71.94 1.05L71.94 1.05Q71.19 1.05 71.19 0L71.19 0Q71.19-0.55 71.31-1.2 71.44-1.85 71.74-2.63 72.04-3.4 72.26-3.93 72.49-4.45 72.91-5.43 73.34-6.4 73.49-6.75L73.49-6.75Q74.89-9.9 82.09-23.35L82.09-23.35Q91.94-41.3 100.19-45.4L100.19-45.4Q101.39-46 102.59-46L102.59-46Q103.99-46 103.99-44.7L103.99-44.7Q103.99-41.7 101.94-38.13 99.89-34.55 96.94-31.55 93.99-28.55 91.16-26.3 88.34-24.05 86.29-22.9L86.29-22.9Q85.99-22.8 85.74-22.45L85.74-22.45Q83.54-18.9 81.44-14.83 79.34-10.75 78.29-8.4L78.29-8.4 77.29-6.1Q77.04-5.35 77.04-5.1L77.04-5.1Q77.04-4.65 77.39-4.65L77.39-4.65Q78.39-4.65 81.29-7.55ZM95.84-16.95L95.84-16.95Q96.44-18.2 96.44-19.15L96.44-19.15Q96.44-19.95 95.94-19.95L95.94-19.95Q95.64-19.95 95.26-19.78 94.89-19.6 94.69-19.4L94.69-19.4 94.44-19.2Q92.89-17.85 90.56-14.28 88.24-10.7 88.24-9.7L88.24-9.7Q88.24-9.5 88.34-9.5L88.34-9.5Q88.64-9.5 89.66-10 90.69-10.5 92.61-12.35 94.54-14.2 95.84-16.95ZM93.59-5.5L93.59-5.5Q96.24-7.95 101.19-13.6L101.19-13.6Q101.34-13.75 101.44-13.75 101.54-13.75 101.54-13.55L101.54-13.55Q101.54-12.6 100.79-11.7L100.79-11.7Q97.09-7.6 94.24-4.85L94.24-4.85Q92.14-2.75 89.24-0.83 86.34 1.1 84.44 1.1L84.44 1.1Q82.14 1.1 82.14-2.1L82.14-2.1Q82.14-7.4 86.06-13.2 89.99-19 95.14-21.05L95.14-21.05Q97.29-21.95 99.04-21.95L99.04-21.95Q100.99-21.95 100.99-20.4L100.99-20.4Q100.99-17.5 96.89-13.75 92.79-10 87.69-8.05L87.69-8.05Q87.49-8 87.34-7.7L87.34-7.7Q86.59-5.65 86.59-4.05L86.59-4.05Q86.59-2.25 87.94-2.25L87.94-2.25Q90.09-2.25 93.59-5.5ZM103.73-3.45L103.73-3.45Q104.53-5.45 106.01-8.1 107.48-10.75 108.58-12.4L108.58-12.4 109.68-14Q110.38-15 111.08-15L111.08-15Q111.63-15 111.63-14.45L111.63-14.45 111.48-13.95Q109.68-9.4 109.68-6.1L109.68-6.1Q109.68-3.45 110.86-1.78 112.03-0.1 114.53-0.1L114.53-0.1Q118.28-0.1 120.58-3.38 122.88-6.65 122.88-10.45L122.88-10.45Q122.88-13.7 120.66-19.73 118.43-25.75 118.43-27.9L118.43-27.9Q118.43-32.55 122.41-35.38 126.38-38.2 131.13-38.2L131.13-38.2Q131.98-38.2 132.81-38.1 133.63-38 134.63-37.77 135.63-37.55 136.23-37.05 136.83-36.55 136.83-35.8L136.83-35.8Q136.83-34.8 135.43-32.4 134.03-30 133.08-28.75L133.08-28.75Q132.73-28.5 132.48-28.5L132.48-28.5Q132.13-28.5 132.13-29.1L132.13-29.1Q132.13-30.5 132.43-32.9L132.43-32.9Q132.43-36.8 129.43-36.8L129.43-36.8Q126.88-36.8 125.11-35.05 123.33-33.3 123.33-30.8L123.33-30.8Q123.33-27.5 125.66-21.6 127.98-15.7 127.98-12.5L127.98-12.5Q127.98-6.5 123.26-2.63 118.53 1.25 112.63 1.25L112.63 1.25Q111.63 1.25 110.23 1.05 108.83 0.85 107.28 0.43 105.73 0 104.66-0.83 103.58-1.65 103.58-2.7L103.58-2.7Q103.58-3.1 103.73-3.45ZM141.53-16.95L141.53-16.95Q142.13-18.2 142.13-19.15L142.13-19.15Q142.13-19.95 141.63-19.95L141.63-19.95Q141.33-19.95 140.95-19.78 140.58-19.6 140.38-19.4L140.38-19.4 140.13-19.2Q138.58-17.85 136.25-14.28 133.93-10.7 133.93-9.7L133.93-9.7Q133.93-9.5 134.03-9.5L134.03-9.5Q134.33-9.5 135.35-10 136.38-10.5 138.3-12.35 140.23-14.2 141.53-16.95ZM139.28-5.5L139.28-5.5Q141.93-7.95 146.88-13.6L146.88-13.6Q147.03-13.75 147.13-13.75 147.23-13.75 147.23-13.55L147.23-13.55Q147.23-12.6 146.48-11.7L146.48-11.7Q142.78-7.6 139.93-4.85L139.93-4.85Q137.83-2.75 134.93-0.83 132.03 1.1 130.13 1.1L130.13 1.1Q127.83 1.1 127.83-2.1L127.83-2.1Q127.83-7.4 131.75-13.2 135.68-19 140.83-21.05L140.83-21.05Q142.98-21.95 144.73-21.95L144.73-21.95Q146.68-21.95 146.68-20.4L146.68-20.4Q146.68-17.5 142.58-13.75 138.48-10 133.38-8.05L133.38-8.05Q133.18-8 133.03-7.7L133.03-7.7Q132.28-5.65 132.28-4.05L132.28-4.05Q132.28-2.25 133.63-2.25L133.63-2.25Q135.78-2.25 139.28-5.5ZM154.68-10.35L154.68-10.35Q154.28-10.35 154.28-10.65L154.28-10.65Q154.28-10.8 154.43-11.05L154.43-11.05Q157.38-15.65 157.38-17.35L157.38-17.35Q157.38-17.8 157.03-17.8L157.03-17.8Q155.53-17.8 149.97-11L149.97-11Q148.32-8.9 146.9-6.65 145.47-4.4 144.93-3.2L144.93-3.2 144.32-2.05Q143.72-0.85 142.47 0.18 141.22 1.2 139.88 1.2L139.88 1.2Q139.18 1.2 139.18 0.85L139.18 0.85Q139.18 0.55 139.6-0.4 140.03-1.35 140.63-2.5 141.22-3.65 141.82-4.75 142.43-5.85 142.82-6.6L142.82-6.6 143.28-7.35 148.53-16.5Q151.57-22.25 154.93-22.25L154.93-22.25Q155.38-22.25 155.38-21.9L155.38-21.9Q155.38-21.45 153.2-18.18 151.03-14.9 150.68-14L150.68-14Q150.57-13.7 150.57-13.65L150.57-13.65Q150.57-13.55 150.68-13.55 150.78-13.55 151.03-13.8L151.03-13.8Q154.78-18.05 158.97-21.35L158.97-21.35Q159.22-21.6 160.07-22.08 160.93-22.55 161.57-22.55L161.57-22.55Q162.53-22.55 162.53-20.9L162.53-20.9Q162.53-19.1 161.32-16.6 160.13-14.1 158.07-12.2L158.07-12.2 157.88-12Q157.68-11.85 157.45-11.68 157.22-11.5 156.88-11.25 156.53-11 156.18-10.83 155.82-10.65 155.43-10.5 155.03-10.35 154.68-10.35ZM177.62-23.15L177.62-23.15Q177.57-21.75 170.07-11.1L170.07-11.1Q169.92-10.9 169.92-10.8L169.92-10.8Q169.92-10.45 171.22-10.45L171.22-10.45Q173.67-10.45 176.67-14L176.67-14Q176.72-14.05 176.82-14.05L176.82-14.05Q177.07-14.05 177.07-13.55L177.07-13.55Q177.07-13 175.87-11.65L175.87-11.65Q173.72-9.25 170.62-9.25L170.62-9.25Q170.12-9.25 169.72-9.33 169.32-9.4 169.12-9.47 168.92-9.55 168.87-9.55L168.87-9.55 168.62-9.4Q165.82-6 163.47-3.48 161.12-0.95 160.12-0.1L160.12-0.1 159.17 0.7Q158.37 1.3 157.92 1.3L157.92 1.3Q157.32 1.3 157.32 0.35L157.32 0.35Q157.32-2.95 159.95-10.23 162.57-17.5 163.72-19.35L163.72-19.35Q165.32-21.9 167.67-21.9L167.67-21.9Q168.02-21.9 168.02-21.55L168.02-21.55Q168.02-21.3 167.62-20.5L167.62-20.5Q163.27-11.45 162.22-5.05L162.22-5.05Q162.22-4.5 162.42-4.5 162.62-4.5 163.02-4.85L163.02-4.85Q165.17-6.4 167.87-10.25L167.87-10.25Q167.97-10.4 167.97-10.6L167.97-10.6Q167.77-11.05 167.77-11.8L167.77-11.8Q167.77-14.8 170.8-18.48 173.82-22.15 176.92-23.3L176.92-23.3Q177.22-23.4 177.32-23.4L177.32-23.4Q177.62-23.4 177.62-23.15ZM178.42-4.85L178.42-4.85Q172.57 0.65 170.92 0.65L170.92 0.65Q170.07 0.65 170.07-0.5 170.07-1.65 170.97-3.85 171.87-6.05 172.77-7.7L172.77-7.7 173.67-9.3Q177.47-15.95 179.42-18.85L179.42-18.85Q180.27-20.1 181.59-20.98 182.92-21.85 184.07-21.85L184.07-21.85Q184.47-21.85 184.47-21.5L184.47-21.5Q184.47-21.25 184.12-20.55L184.12-20.55Q183.52-19.45 181.17-15.3 178.82-11.15 178.37-10.3L178.37-10.3Q176.32-6.7 176.32-5.5L176.32-5.5Q176.32-5.05 176.62-5.05L176.62-5.05Q177.12-5.05 179.82-7.55L179.82-7.55Q181.92-9.65 185.37-13.6L185.37-13.6Q185.52-13.75 185.62-13.75 185.72-13.75 185.72-13.55L185.72-13.55Q185.72-12.6 184.97-11.7L184.97-11.7Q181.27-7.6 178.42-4.85ZM185.07-24.7L185.07-24.7Q183.82-24.7 183.82-26.2L183.82-26.2Q183.82-27.6 184.87-29.03 185.92-30.45 187.17-30.45L187.17-30.45Q188.67-30.45 188.67-28.75L188.67-28.75Q188.67-27.35 187.52-26.03 186.37-24.7 185.07-24.7ZM192.82-4.85L192.82-4.85Q190.57-2.7 187.74-0.83 184.92 1.05 182.97 1.05L182.97 1.05Q180.67 1.05 180.67-2.5L180.67-2.5Q180.67-6.25 183.32-10.83 185.97-15.4 190.04-18.65 194.12-21.9 197.77-21.9L197.77-21.9Q199.72-21.9 199.72-20.45L199.72-20.45Q199.72-17.95 196.47-14.8L196.47-14.8Q196.17-14.5 195.17-13.75 194.17-13 193.77-13L193.77-13Q193.52-13 193.52-13.25L193.52-13.25 193.67-13.7Q195.67-17.25 195.67-19.1L195.67-19.1Q195.67-20.1 195.02-20.1L195.02-20.1Q193.47-20.1 191.09-17.07 188.72-14.05 186.97-10.18 185.22-6.3 185.22-4.05L185.22-4.05Q185.22-2.25 186.52-2.25L186.52-2.25Q188.77-2.25 192.17-5.5L192.17-5.5Q194.82-7.95 199.77-13.6L199.77-13.6Q199.92-13.75 200.02-13.75 200.12-13.75 200.12-13.55L200.12-13.55Q200.12-12.6 199.37-11.7L199.37-11.7Q195.67-7.6 192.82-4.85ZM208.77-16.95L208.77-16.95Q209.37-18.2 209.37-19.15L209.37-19.15Q209.37-19.95 208.87-19.95L208.87-19.95Q208.57-19.95 208.19-19.78 207.82-19.6 207.62-19.4L207.62-19.4 207.37-19.2Q205.82-17.85 203.49-14.28 201.17-10.7 201.17-9.7L201.17-9.7Q201.17-9.5 201.27-9.5L201.27-9.5Q201.57-9.5 202.59-10 203.62-10.5 205.54-12.35 207.47-14.2 208.77-16.95ZM206.52-5.5L206.52-5.5Q209.17-7.95 214.12-13.6L214.12-13.6Q214.27-13.75 214.37-13.75 214.47-13.75 214.47-13.55L214.47-13.55Q214.47-12.6 213.72-11.7L213.72-11.7Q210.02-7.6 207.17-4.85L207.17-4.85Q205.07-2.75 202.17-0.83 199.27 1.1 197.37 1.1L197.37 1.1Q195.07 1.1 195.07-2.1L195.07-2.1Q195.07-7.4 198.99-13.2 202.92-19 208.07-21.05L208.07-21.05Q210.22-21.95 211.97-21.95L211.97-21.95Q213.92-21.95 213.92-20.4L213.92-20.4Q213.92-17.5 209.82-13.75 205.72-10 200.62-8.05L200.62-8.05Q200.42-8 200.27-7.7L200.27-7.7Q199.52-5.65 199.52-4.05L199.52-4.05Q199.52-2.25 200.87-2.25L200.87-2.25Q203.02-2.25 206.52-5.5Z" opacity="1" transform="matrix(1,0,0,1,0,0)" fill="#b81d33" class="wordmark-text-0" data-fill-palette-color="primary" id="text-0"></path></svg></g></svg></g></svg></g></svg></g><g><svg viewBox="0 0 121.7384840235238 123.36609081837257" height="123.36609081837257" width="121.7384840235238"><g><svg xmlns:x="http://ns.adobe.com/Extensibility/1.0/" xmlns:i="http://ns.adobe.com/AdobeIllustrator/10.0/" xmlns:graph="http://ns.adobe.com/Graphs/1.0/" xmlns="http://www.w3.org/2000/svg" xmlns:xlink="http://www.w3.org/1999/xlink" xmlns:a="http://ns.adobe.com/AdobeSVGViewerExtensions/3.0/" version="1.1" x="0" y="0" viewBox="3.903405632915713 3.2867499999999996 92.1945943670843 93.42720827257041" enable-background="new 0 0 100 100" xml:space="preserve" height="123.36609081837257" width="121.7384840235238" class="icon-icon-0" data-fill-palette-color="accent" id="icon-0"><path d="M58.248 32.491c-0.431 0.392-7.462 6.679-16.153 14.449 1.385 1.687 3.008 3.5 4.927 5.42 2.447 2.438 4.725 4.412 6.784 6.01 8.384-9.378 15.275-17.082 15.629-17.474 0.94-1.034 1.693-0.719 2.101-0.603 6.896 1.952 14.677 0.232 18.228-7.172 3.279-6.841 0.598-12.116-1.588-15.76-0.524-0.885-1.366-0.354-1.586 0.11-0.232 0.47-4.169 8.688-4.169 8.688-1.052 2.201-3.628 3.849-8.782 1.382-5.153-2.472-5.469-5.513-4.413-7.708 0 0 3.677-7.665 4.169-8.687 0.488-1.029-0.258-1.289-0.706-1.228-4.22 0.552-10.035 1.775-13.319 8.626-1.886 3.927-1.772 7.775-0.382 11.154C59.193 30.207 59.43 31.44 58.248 32.491zM26.802 72.582c-2.071-2.074-4.103-4.264-6.071-6.536C13.18 72.798 7.503 77.875 7.503 77.875c-0.292 0.264-0.58 0.553-0.851 0.845C2.676 83.172 3.06 89.995 7.503 93.967c4.444 3.975 11.265 3.589 15.238-0.853 0 0 5.096-5.701 11.917-13.333C31.917 77.465 29.271 75.049 26.802 72.582zM12.339 8.552C4.34 16.687 3.904 26.983 3.904 26.983c1.999 9.987 13.155 28.185 26.734 41.756 13.573 13.582 31.767 24.74 41.761 26.73 0 0 10.298-0.426 18.426-8.433l0.007 0.011 4.792-4.788c0.632-0.631 0.632-1.676 0-2.307l-20.32-20.321c-0.638-0.631-1.677-0.631-2.307 0l-4.79 4.793 0.012 0.018-4.503 5.579c0 0-8.538-1.841-20.527-13.83C31.196 44.203 29.354 35.665 29.354 35.665l5.583-4.512 0.014 0.022 0.161-0.161 0.002-0.006 0 0 4.631-4.623c0.633-0.642 0.633-1.675 0-2.312L19.426 3.763c-0.633-0.635-1.669-0.635-2.3 0l-4.792 4.789H12.339z" fill="#fe6e63" data-fill-palette-color="accent"></path></svg></g></svg></g></svg></g><defs></defs></svg><rect width="395.52" height="90.63875975620489" fill="none" stroke="none" visibility="hidden"></rect></g></svg></g></svg>